<svg xmlns="http://www.w3.org/2000/svg" xmlns:svg="http://www.w3.org/2000/svg" id="svg5179" width="128" height="128" version="1.1" viewBox="0 0 33.867 33.867"><defs id="defs5181"><clipPath id="clipPath4379-92-4-9-6-8-0" clipPathUnits="userSpaceOnUse"><rect id="rect4381-17-7-5-2-0-6" width="19.934" height="33.526" x="356.028" y="457.716" fill="#000" fill-opacity="1" fill-rule="nonzero" stroke="none" stroke-width="1.049" color="#000" display="inline" enable-background="accumulate" opacity=".832" overflow="visible" visibility="visible" style="marker:none"/></clipPath><filter id="filter4435-8-5-3-2-13-8" width="1.458" height="1.458" x="-.229" y="-.229" color-interpolation-filters="sRGB"><feGaussianBlur id="feGaussianBlur4437-6-7-9-8-8-1" stdDeviation="1.035"/></filter><filter id="filter4365-71-5-7-0-6-2" width="1.437" height="1.437" x="-.219" y="-.219" color-interpolation-filters="sRGB"><feGaussianBlur id="feGaussianBlur4367-74-5-92-0-6-5" stdDeviation=".989"/></filter><clipPath id="clipPath4379-6-7-5-8-6-01-2" clipPathUnits="userSpaceOnUse"><rect id="rect4381-1-8-5-2-0-2-7" width="19.934" height="33.526" x="356.028" y="457.716" fill="#000" fill-opacity="1" fill-rule="nonzero" stroke="none" stroke-width="1.049" color="#000" display="inline" enable-background="accumulate" opacity=".832" overflow="visible" visibility="visible" style="marker:none"/></clipPath><filter id="filter4435-6-1-2-8-2-2-7" width="1.458" height="1.458" x="-.229" y="-.229" color-interpolation-filters="sRGB"><feGaussianBlur id="feGaussianBlur4437-1-1-3-60-1-4-4" stdDeviation="1.035"/></filter><filter id="filter4365-4-5-2-24-7-3-3" width="1.437" height="1.437" x="-.219" y="-.219" color-interpolation-filters="sRGB"><feGaussianBlur id="feGaussianBlur4367-7-0-7-7-9-0-3" stdDeviation=".989"/></filter><clipPath id="clipPath4379-5-6-0-9-8-7-9" clipPathUnits="userSpaceOnUse"><rect id="rect4381-6-8-5-9-9-2-4" width="19.934" height="33.526" x="356.028" y="457.716" fill="#000" fill-opacity="1" fill-rule="nonzero" stroke="none" stroke-width="1.049" color="#000" display="inline" enable-background="accumulate" opacity=".832" overflow="visible" visibility="visible" style="marker:none"/></clipPath><filter id="filter4435-63-9-2-4-1-2-6" width="1.458" height="1.458" x="-.229" y="-.229" color-interpolation-filters="sRGB"><feGaussianBlur id="feGaussianBlur4437-0-5-6-8-8-9-9" stdDeviation="1.035"/></filter><filter id="filter4365-2-4-3-6-3-1-7" width="1.437" height="1.437" x="-.219" y="-.219" color-interpolation-filters="sRGB"><feGaussianBlur id="feGaussianBlur4367-1-2-5-3-5-8-3" stdDeviation=".989"/></filter><filter id="filter4255" width="1.407" height="1.276" x="-.204" y="-.138" color-interpolation-filters="sRGB"><feGaussianBlur id="feGaussianBlur4257" stdDeviation=".259"/></filter></defs><metadata id="metadata5184"/><g id="layer1" transform="translate(136.97858,-11.552354)"><rect id="rect4006-4-6-9-2-0-6" width="33.834" height="33.86" x="-136.947" y="11.552" fill="#0055d4" fill-opacity="1" fill-rule="nonzero" stroke="none" stroke-width="1.049" color="#000" display="inline" enable-background="accumulate" overflow="visible" visibility="visible" style="marker:none"/><path id="path6097-2-6-0-89-4" fill="#fff" fill-opacity="1" fill-rule="nonzero" stroke="none" stroke-width=".154" d="m -130.12265,11.559157 c -4.30029,5.691881 -6.67207,12.608761 -6.82289,19.674442 -0.0115,0.54232 -0.0147,1.0766 0,1.62024 0.11433,4.23572 1.04846,8.50668 2.82497,12.565201 l 31.00865,0 0,-33.859883 -27.01073,0 z" color="#000" display="inline" enable-background="accumulate" filter="url(#filter4365-3)" opacity=".25" overflow="visible" visibility="visible" style="marker:none"/><path id="rect4008-7-9-2-0-3-4" fill="#000" fill-opacity="1" fill-rule="nonzero" stroke="none" stroke-width="1" d="m -136.9473,18.430158 0,0.7896 0,20.641361 0,0.7896 1.23782,0 2.26288,0 1.60528,0 c 0.68577,0 1.23783,-0.3548 1.23783,-0.7896 l 0,-20.641361 c 0,-0.4398 -0.55206,-0.7896 -1.23783,-0.7896 l -1.60528,0 -2.26288,0 z" color="#000" display="inline" enable-background="accumulate" overflow="visible" visibility="visible" style="marker:none"/><path id="path6097-4-5-23-9" fill="#fff" fill-opacity="1" fill-rule="nonzero" stroke="none" stroke-width=".154" d="m -119.36792,11.559157 c -10.47023,5.721881 -17.57762,16.847401 -17.57762,29.627402 0,1.43804 0.0897,2.841801 0.26432,4.232481 l 33.5693,0 0,-33.859883 -16.256,0 z" color="#000" display="inline" enable-background="accumulate" filter="url(#filter4365-3)" opacity=".15" overflow="visible" visibility="visible" style="marker:none"/><rect id="rect4247-4-4-5-3-8-1" width="33.834" height="2.116" x="-136.947" y="11.552" fill="#000" fill-opacity="1" fill-rule="nonzero" stroke="none" stroke-width="1.049" color="#000" display="inline" enable-background="accumulate" overflow="visible" visibility="visible" style="marker:none"/><path id="rect4272-0-7-8-1-1-3-3-1" fill="#000" fill-opacity="1" fill-rule="nonzero" stroke="none" stroke-width="1.049" d="m -103.11365,13.668597 0,1.05812 c 0,-0.58196 -0.47338,-1.05812 -1.05731,-1.05812 l 1.05731,0 z" color="#000" display="inline" enable-background="accumulate" overflow="visible" visibility="visible" style="marker:none"/><rect id="rect4031-9-9-2-4-2-5" width="4.229" height="4.232" x="-135.89" y="19.488" fill="gray" fill-opacity="1" fill-rule="nonzero" stroke="none" stroke-width="1.049" color="#000" display="inline" enable-background="accumulate" overflow="visible" rx="1.058" ry="1.058" visibility="visible" style="marker:none"/><path id="rect4272-0-2-1-74-41-1-6" fill="#000" fill-opacity="1" fill-rule="nonzero" stroke="none" stroke-width="1.049" d="m -136.94728,13.668597 0,1.05812 c 0,-0.58196 0.47337,-1.05812 1.0573,-1.05812 l -1.0573,0 z" color="#000" display="inline" enable-background="accumulate" overflow="visible" visibility="visible" style="marker:none"/><g id="g4353-9-2-1-5-5-4" clip-path="url(#clipPath4379-92-4-9-6-8-0)" transform="matrix(0.10331261,0,0,0.10339285,-173.76079,-27.453246)"><circle id="path3153-1-7-3-5-60-3-6" cx="274.13" cy="477.712" r="5.43" fill="#d7eef4" fill-opacity="1" fill-rule="nonzero" stroke="none" stroke-width="1.049" color="#000" display="inline" enable-background="accumulate" filter="url(#filter4435-8-5-3-2-13-8)" opacity=".422" overflow="visible" transform="matrix(0.94749688,0,0,0.94749688,96.290796,21.848877)" visibility="visible" style="marker:none"/><circle id="path3153-2-4-1-6-6-9-4-1" cx="274.13" cy="477.712" r="5.43" fill="#d7eef4" fill-opacity="1" fill-rule="nonzero" stroke="none" stroke-width="1.049" color="#000" display="inline" enable-background="accumulate" filter="url(#filter4365-71-5-7-0-6-2)" overflow="visible" transform="matrix(0.24231546,0,0,0.24231546,289.60229,358.72226)" visibility="visible" style="marker:none"/></g><g id="g4589-4-1-1-3-6-2" transform="matrix(0.49926208,0,0,0.49964988,-318.21072,-206.05794)"><g id="g4353-66-1-4-2-6-94-5" clip-path="url(#clipPath4379-6-7-5-8-6-01-2)" transform="matrix(0.20693061,0,0,0.20693061,289.32686,368.5622)"><circle id="path3153-1-6-4-5-63-7-1-0" cx="274.13" cy="477.712" r="5.43" fill="#d7eef4" fill-opacity="1" fill-rule="nonzero" stroke="none" stroke-width="1.049" color="#000" display="inline" enable-background="accumulate" filter="url(#filter4435-6-1-2-8-2-2-7)" opacity=".422" overflow="visible" transform="matrix(0.94749688,0,0,0.94749688,96.290796,21.848877)" visibility="visible" style="marker:none"/><circle id="path3153-2-4-7-6-5-8-5-9-5" cx="274.13" cy="477.712" r="5.43" fill="#d7eef4" fill-opacity="1" fill-rule="nonzero" stroke="none" stroke-width="1.049" color="#000" display="inline" enable-background="accumulate" filter="url(#filter4365-4-5-2-24-7-3-3)" overflow="visible" transform="matrix(0.24231546,0,0,0.24231546,289.60229,358.72226)" visibility="visible" style="marker:none"/></g><g id="g4353-7-2-2-6-4-5-1" clip-path="url(#clipPath4379-5-6-0-9-8-7-9)" transform="matrix(0.20693061,0,0,0.20693061,289.32686,367.53449)"><circle id="path3153-1-19-3-1-5-5-7-8" cx="274.13" cy="477.712" r="5.43" fill="#d7eef4" fill-opacity="1" fill-rule="nonzero" stroke="none" stroke-width="1.049" color="#000" display="inline" enable-background="accumulate" filter="url(#filter4435-63-9-2-4-1-2-6)" opacity=".422" overflow="visible" transform="matrix(0.94749688,0,0,0.94749688,96.290796,21.848877)" visibility="visible" style="marker:none"/><circle id="path3153-2-4-5-7-9-9-9-7-6" cx="274.13" cy="477.712" r="5.43" fill="#d7eef4" fill-opacity="1" fill-rule="nonzero" stroke="none" stroke-width="1.049" color="#000" display="inline" enable-background="accumulate" filter="url(#filter4365-2-4-3-6-3-1-7)" overflow="visible" transform="matrix(0.24231546,0,0,0.24231546,289.60229,358.72226)" visibility="visible" style="marker:none"/></g></g><text id="text4824-5-2-0-4-8" x="-124.447" y="13.101" fill="#fff" fill-opacity="1" stroke="none" font-family="Sans" font-size="1.288" font-style="normal" font-weight="normal" letter-spacing="0" transform="scale(0.99961185,1.0003883)" word-spacing="0" xml:space="preserve" style="line-height:125%"><tspan id="tspan4826-16-3-8-8-1" x="-124.447" y="13.101">Dash to Dock</tspan></text><text id="text4824-8-8-6-8-7-4" x="-136.503" y="13.101" fill="#fff" fill-opacity="1" stroke="none" font-family="Sans" font-size="1.288" font-style="normal" font-weight="normal" letter-spacing="0" transform="scale(0.99961185,1.0003883)" word-spacing="0" xml:space="preserve" style="line-height:125%"><tspan id="tspan4826-1-7-7-5-07-5" x="-136.503" y="13.101">Michele</tspan></text><rect id="rect4031-9-0-8-5-4-0-7-6" width="4.229" height="4.232" x="-135.89" y="24.779" fill="gray" fill-opacity="1" fill-rule="nonzero" stroke="none" stroke-width="1.049" color="#000" display="inline" enable-background="accumulate" overflow="visible" rx="1.058" ry="1.058" visibility="visible" style="marker:none"/><rect id="rect4031-9-0-7-3-3-6-0-1" width="4.229" height="4.232" x="-135.89" y="30.069" fill="gray" fill-opacity="1" fill-rule="nonzero" stroke="none" stroke-width="1.049" color="#000" display="inline" enable-background="accumulate" overflow="visible" rx="1.058" ry="1.058" visibility="visible" style="marker:none"/><rect id="rect4031-9-0-6-5-1-3-9-0" width="4.229" height="4.232" x="-135.89" y="35.36" fill="gray" fill-opacity="1" fill-rule="nonzero" stroke="none" stroke-width="1.049" color="#000" display="inline" enable-background="accumulate" overflow="visible" rx="1.058" ry="1.058" visibility="visible" style="marker:none"/><path id="rect4008-7-0-0-3-3-3-7-9" fill="gray" fill-opacity="1" fill-rule="nonzero" stroke="none" stroke-width="1" d="m -136.9473,17.901078 0,0.52908 2.42849,0 2.21372,0 c 0.94338,0 1.7016,0.3372 1.7016,0.77704 l 0,20.649921 c 0,0.43476 -0.75822,0.7936 -1.7016,0.7936 l -2.21372,0 -2.42849,0 0,0.52904 0.90862,0 2.64325,0 1.88332,0 c 0.80005,0 1.43727,-0.3712 1.43727,-0.82664 l 0,-21.625361 c 0,-0.46072 -0.63722,-0.82668 -1.43727,-0.82668 l -1.88332,0 -2.64325,0 z" color="#000" display="inline" enable-background="accumulate" opacity=".5" overflow="visible" visibility="visible" style="marker:none"/><path id="rect4008-7-0-0-3-1-5-0-5-5" fill="#1a1a1a" fill-opacity="1" fill-rule="nonzero" stroke="none" stroke-width="1" d="m -136.9473,17.901078 0,0.52908 2.42849,0 2.21372,0 c 0.94338,0 1.7016,0.3372 1.7016,0.77704 l 0,20.649921 c 0,0.43476 -0.75822,0.7936 -1.7016,0.7936 l -2.21372,0 -2.42849,0 0,0.52904 0.90862,0 2.64325,0 1.88332,0 c 0.80005,0 1.43727,-0.3712 1.43727,-0.82664 l 0,-21.625361 c 0,-0.46072 -0.63722,-0.82668 -1.43727,-0.82668 l -1.88332,0 -2.64325,0 z" color="#000" display="inline" enable-background="accumulate" opacity=".25" overflow="visible" visibility="visible" style="marker:none"/><rect id="rect6777-7-9-6-9-8" width="20.108" height="18.256" x="-125.241" y="19.14" fill="#f2f2f2" fill-opacity="1" fill-rule="nonzero" stroke="none" stroke-width=".5" color="#000" display="inline" enable-background="accumulate" filter="url(#filter4365-3)" overflow="visible" visibility="visible" style="marker:none"/><rect stroke-linejoin="miter" style="marker:none" id="rect4923-8-7-8-2" width="3.704" height="3.704" x="-116.719" y="30.164" fill="#1a1a1a" fill-opacity="1" fill-rule="nonzero" stroke="#000" stroke-dasharray="none" stroke-dashoffset="0" stroke-linecap="butt" stroke-miterlimit="4" stroke-opacity="1" stroke-width=".132" color="#000" display="inline" enable-background="accumulate" opacity=".25" overflow="visible" rx="1.058" ry="1.058" visibility="visible"/><path id="path6862-84-2-2-6-7" fill="#b3b3b3" fill-opacity="1" fill-rule="nonzero" stroke="none" stroke-width=".5" d="m -111.94623,19.146638 c -5.49508,1.3884 -10.21465,5.00036 -13.29531,9.92188 l 0,8.334361 20.10833,0 0,-18.256241 -6.81302,0 z" color="#000" display="inline" enable-background="accumulate" filter="url(#filter4365-3)" opacity=".15" overflow="visible" visibility="visible" style="marker:none"/><path id="rect6779-5-8-6-4-6" fill="#ccc" fill-opacity="1" fill-rule="nonzero" stroke="none" stroke-width=".5" d="m -125.02657,18.882038 c -0.11728,0 -0.21496,0.0812 -0.21496,0.1984 l 0,0.44648 0,1.2568 0,0.2148 0.21496,0 19.67838,0 0.215,0 0,-0.2148 0,-1.2568 0,-0.44648 c 0,-0.1172 -0.0977,-0.1984 -0.215,-0.1984 l -19.67838,0 z" color="#000" display="inline" enable-background="accumulate" filter="url(#filter4365-3)" overflow="visible" visibility="visible" style="marker:none"/><rect id="rect6779-2-3-9-9-0-8" width="20.108" height=".529" x="-125.241" y="20.992" fill="#999" fill-opacity="1" fill-rule="nonzero" stroke="none" stroke-width=".5" color="#000" display="inline" enable-background="accumulate" filter="url(#filter4365-3)" overflow="visible" visibility="visible" style="marker:none"/><rect id="rect6779-2-4-8-0-7-1-1" width="15.875" height=".529" x="21.521" y="105.133" fill="#b3b3b3" fill-opacity="1" fill-rule="nonzero" stroke="none" stroke-width=".5" color="#000" display="inline" enable-background="accumulate" filter="url(#filter4365-3)" overflow="visible" transform="rotate(90)" visibility="visible" style="marker:none"/><g id="g6839-1-5-1-33-0" fill="#1a1a1a" transform="matrix(0.02002288,0.02002284,-0.02002288,0.02002284,-106.62848,-6.0229242)"><rect id="rect6819-8-9-2-56-9" width="11.314" height="41.543" x="653.013" y="616.077" fill="#1a1a1a" fill-opacity="1" fill-rule="nonzero" stroke="none" stroke-width=".5" color="#000" display="inline" enable-background="accumulate" filter="url(#filter4365-3)" overflow="visible" visibility="visible" style="marker:none"/><rect id="rect6819-3-9-4-3-1-5" width="11.314" height="41.543" x="631.192" y="-679.441" fill="#1a1a1a" fill-opacity="1" fill-rule="nonzero" stroke="none" stroke-width=".5" color="#000" display="inline" enable-background="accumulate" filter="url(#filter4365-3)" overflow="visible" transform="rotate(90)" visibility="visible" style="marker:none"/></g><rect stroke-linejoin="miter" style="marker:none" id="rect4923-6-8-9-1" width="3.704" height="3.704" x="-123.598" y="30.164" fill="#1a1a1a" fill-opacity="1" fill-rule="nonzero" stroke="#000" stroke-dasharray="none" stroke-dashoffset="0" stroke-linecap="butt" stroke-miterlimit="4" stroke-opacity="1" stroke-width=".132" color="#000" display="inline" enable-background="accumulate" opacity=".25" overflow="visible" rx="1.058" ry="1.058" visibility="visible"/><path id="path6155-6-0-01-4-5-6-0-0" fill="#000" fill-opacity="1" fill-rule="nonzero" stroke="#000" stroke-dasharray="none" stroke-miterlimit="4" stroke-width=".265" d="m -121.46776,32.043964 -5e-4,1.742839 -4.9e-4,1.742839 0.71518,-0.708051 0.99716,1.727136 1.33421,-0.770304 -0.99542,-1.724104 0.96903,-0.268366 -1.50959,-0.870995 z" color="#000" display="inline" enable-background="accumulate" filter="url(#filter4255)" opacity=".866" overflow="visible" visibility="visible" style="marker:none"/><path id="path6155-6-0-8-0-7-97-5" fill="#000" fill-opacity="1" fill-rule="nonzero" stroke="#fff" stroke-dasharray="none" stroke-miterlimit="4" stroke-width=".132" d="m -121.86464,32.043964 -5e-4,1.742839 -4.9e-4,1.742839 0.71518,-0.708051 1.05563,1.8284 1.3342,-0.770304 -1.05388,-1.825368 0.96903,-0.268366 -1.50959,-0.870995 z" color="#000" display="inline" enable-background="accumulate" filter="url(#filter4365-3)" overflow="visible" visibility="visible" style="marker:none"/><rect stroke-linejoin="miter" style="marker:none" id="rect4923-4-8-4" width="3.704" height="3.704" x="-123.598" y="23.02" fill="#1a1a1a" fill-opacity="1" fill-rule="nonzero" stroke="#000" stroke-dasharray="none" stroke-dashoffset="0" stroke-linecap="butt" stroke-miterlimit="4" stroke-opacity="1" stroke-width=".132" color="#000" display="inline" enable-background="accumulate" opacity=".25" overflow="visible" rx="1.058" ry="1.058" visibility="visible"/><rect stroke-linejoin="miter" style="marker:none" id="rect4923-2-6-7-8" width="3.704" height="3.704" x="-116.719" y="23.02" fill="#1a1a1a" fill-opacity="1" fill-rule="nonzero" stroke="#000" stroke-dasharray="none" stroke-dashoffset="0" stroke-linecap="butt" stroke-miterlimit="4" stroke-opacity="1" stroke-width=".132" color="#000" display="inline" enable-background="accumulate" opacity=".25" overflow="visible" rx="1.058" ry="1.058" visibility="visible"/></g></svg>